<svg width="42" height="43" viewBox="0 0 42 43" fill="none" xmlns="http://www.w3.org/2000/svg">
<g clip-path="url(#clip0_1_68)">
<path d="M28.8674 2C25.8262 2 23.0706 3.23127 21.0594 5.21487L21.0504 5.20618L6.52365 19.733L8.09789 21.3072L17.8991 11.506C17.8196 12.0415 17.7347 12.5758 17.7347 13.1328C17.7347 15.8006 18.7169 18.219 20.2874 20.1386L12.9554 27.4705L14.5297 29.0448L21.8616 21.7128C23.7812 23.2833 26.1996 24.2655 28.8674 24.2655C29.4244 24.2655 29.9587 24.1806 30.4942 24.1011L20.693 33.9023L22.2672 35.4765L36.794 20.9497L36.785 20.9408C38.7689 18.9296 40.0002 16.174 40.0002 13.1328C40.0002 6.99466 35.0055 2 28.8674 2ZM28.8674 12.0195C30.709 12.0195 32.2073 13.5178 32.2073 15.3593C32.2073 16.8089 31.2737 18.0329 29.9807 18.4942V19.8124H27.7542V18.4942C26.4611 18.0329 25.5276 16.8089 25.5276 15.3593H27.7542C27.7542 15.9736 28.2531 16.4726 28.8674 16.4726C29.4818 16.4726 29.9807 15.9736 29.9807 15.3593C29.9807 14.745 29.4818 14.246 28.8674 14.246C27.0256 14.246 25.5276 12.7477 25.5276 10.9062C25.5276 9.45663 26.4611 8.2326 27.7542 7.77135V6.4531H29.9807V7.77135C31.2737 8.2326 32.2073 9.45663 32.2073 10.9062H29.9807C29.9807 10.2919 29.4818 9.79293 28.8674 9.79293C28.2531 9.79293 27.7542 10.2919 27.7542 10.9062C27.7542 11.5205 28.2531 12.0195 28.8674 12.0195Z" fill="#FE3C09"/>
<path d="M4.16113 29.9676L13.6075 20.5213L15.1817 22.0955L5.73537 31.5418L4.16113 29.9676Z" fill="#FE3C09"/>
<path d="M10.4578 36.2645L19.9044 26.8182L21.4786 28.3925L12.032 37.8388L10.4578 36.2645Z" fill="#FE3C09"/>
<path d="M3.57433 40.0001L2.00009 38.4259L9.80665 30.6193L11.3809 32.1935L3.57433 40.0001Z" fill="#FE3C09"/>
<path d="M37.7736 33.3202H35.5471V35.5467H33.3205V37.7733H35.5471V39.9998H37.7736V37.7733H40.0002V35.5467H37.7736V33.3202Z" fill="#FE3C09"/>
<path d="M4.22719 8.67965H6.45374V6.4531H8.68029V4.22655H6.45374V2H4.22719V4.22655H2.00064V6.4531H4.22719V8.67965Z" fill="#FE3C09"/>
<path d="M28.7932 33.2459H31.0198V35.4725H28.7932V33.2459Z" fill="#FE3C09"/>
<path d="M37.7737 24.3397H40.0002V26.5663H37.7737V24.3397Z" fill="#FE3C09"/>
<path d="M2.0004 13.207H4.22695V15.4335H2.0004V13.207Z" fill="#FE3C09"/>
<path d="M10.9808 6.52732H13.2074V8.75387H10.9808V6.52732Z" fill="#FE3C09"/>
</g>
<defs>
<clipPath id="clip0_1_68">
<rect width="38" height="38" fill="white" transform="translate(2 2)"/>
</clipPath>
</defs>
</svg>
