<svg width="42" height="43" viewBox="0 0 42 43" fill="none" xmlns="http://www.w3.org/2000/svg">
<path d="M4.57526 3.11328V4.76049H25.7407V3.11328C25.7407 2.49942 25.2412 2 24.6274 2H5.68854C5.07467 2 4.57526 2.49942 4.57526 3.11328Z" fill="#FE3C09"/>
<path d="M17.5464 32.9174H4.57526V38.8867C4.57526 39.5006 5.07467 40 5.68854 40H21.8642C19.6172 38.3158 18.0258 35.8022 17.5464 32.9174ZM15.883 37.638H14.433C13.8182 37.638 13.3197 37.1395 13.3197 36.5247C13.3197 35.9099 13.8182 35.4114 14.433 35.4114H15.883C16.4978 35.4114 16.9963 35.9099 16.9963 36.5247C16.9963 37.1395 16.4978 37.638 15.883 37.638Z" fill="#FE3C09"/>
<path d="M4.57526 6.98706V30.6908H17.4026C17.5779 25.6872 21.069 21.5126 25.7407 20.3051V6.98706H4.57526ZM9.00998 11.8012L11.5478 9.26342C11.9826 8.82865 12.6874 8.82865 13.1222 9.26342C13.5569 9.69812 13.5569 10.4031 13.1222 10.8378L12.4849 11.4751H20.5188C21.1336 11.4751 21.6321 11.9736 21.6321 12.5884C21.6321 13.2033 21.1336 13.7017 20.5188 13.7017H9.79721C9.34693 13.7017 8.94095 13.4305 8.76869 13.0144C8.59635 12.5984 8.69158 12.1196 9.00998 11.8012ZM21.3059 18.3623L18.7682 20.9001C18.5508 21.1175 18.2659 21.2262 17.981 21.2262C17.6962 21.2262 17.4112 21.1175 17.1939 20.9001C16.7591 20.4654 16.7591 19.7605 17.1939 19.3257L17.8311 18.6884H9.79721C9.18239 18.6884 8.68393 18.1899 8.68393 17.5751C8.68393 16.9603 9.18239 16.4618 9.79721 16.4618H20.5188C20.9691 16.4618 21.375 16.733 21.5473 17.1491C21.7196 17.5652 21.6243 18.0439 21.3059 18.3623Z" fill="#FE3C09"/>
<path d="M37.4248 31.0856C37.4248 26.1747 33.4315 22.1793 28.5231 22.1793C23.6147 22.1793 19.6215 26.1747 19.6215 31.0856C19.6215 35.9965 23.6147 39.9918 28.5231 39.9918C33.4315 39.9918 37.4248 35.9965 37.4248 31.0856ZM31.9762 33.6022C31.7789 34.7764 30.9214 35.9656 29.5805 36.4047V36.7581C29.5805 37.3729 29.082 37.8713 28.4672 37.8713C27.8524 37.8713 27.3539 37.3729 27.3539 36.7581V36.523C26.7482 36.4347 26.2208 36.2275 25.5256 35.7726C25.0111 35.4361 24.8669 34.7461 25.2035 34.2315C25.54 33.7169 26.2299 33.5727 26.7446 33.9093C27.3816 34.3261 27.605 34.362 28.4598 34.3555C29.2384 34.3504 29.6902 33.77 29.7804 33.233C29.8335 32.9172 29.8112 32.348 29.0649 32.0843C28.0382 31.7213 26.9864 31.3057 26.248 30.7265C25.4862 30.1288 25.1367 29.1009 25.336 28.0436C25.5469 26.9249 26.3175 26.0307 27.3538 25.6919V25.413C27.3538 24.7982 27.8522 24.2998 28.4671 24.2998C29.0819 24.2998 29.5804 24.7982 29.5804 25.413V25.6235C30.2192 25.7941 30.666 26.0878 30.8528 26.2274C31.3454 26.5955 31.4461 27.2931 31.078 27.7856C30.7099 28.2781 30.0123 28.379 29.5198 28.0108C29.3339 27.8718 28.8195 27.5731 28.0605 27.8019C27.654 27.9242 27.5471 28.3335 27.5241 28.4559C27.4764 28.7085 27.5374 28.9081 27.6222 28.9746C28.1091 29.3565 28.9998 29.6997 29.8069 29.9849C31.375 30.5393 32.2467 31.993 31.9762 33.6022Z" fill="#FE3C09"/>
</svg>
