<svg width="42" height="43" viewBox="0 0 42 43" fill="none" xmlns="http://www.w3.org/2000/svg">
<g clip-path="url(#clip0_1_43)">
<path d="M21 12.5737C20.2988 12.5737 19.7284 13.1442 19.7284 13.8453C19.7924 15.53 22.2079 15.5296 22.2716 13.8453C22.2716 13.1441 21.7011 12.5737 21 12.5737Z" fill="#FE3C09"/>
<path d="M38.1921 10.4646L21.4978 2.11749C21.1844 1.96081 20.8155 1.96081 20.5021 2.11749L3.80787 10.4646C3.43069 10.6532 3.19244 11.0387 3.19244 11.4604V18.4691C3.19244 26.3274 7.52593 34.2459 15.1169 38.1873V23.8461L13.0174 21.7464C10.7534 22.9169 7.92805 21.1754 7.96233 18.6151C7.96233 16.6862 9.53162 15.117 11.4605 15.117C14.0207 15.083 15.7626 17.908 14.5918 20.1721L17.0175 22.5978C17.2262 22.8065 17.3436 23.0897 17.3436 23.3849V39.1905C18.1602 39.5052 19.0085 39.7759 19.8868 40V17.1608C16.1846 15.8542 17.0262 10.4252 21.0002 10.3472C24.9748 10.4255 25.8151 15.8549 22.1134 17.1608V39.9999C22.989 39.7759 23.8375 39.5038 24.6567 39.1866V23.3849C24.6567 23.0896 24.774 22.8065 24.9828 22.5978L27.4085 20.1721C26.238 17.9081 27.9794 15.0828 30.5398 15.117C32.4687 15.117 34.038 16.6863 34.038 18.6151C34.072 21.1752 31.2469 22.9173 28.9829 21.7465L26.8833 23.8461V38.1796C34.2973 34.3167 38.8078 26.5775 38.8078 18.4692V11.4604C38.8075 11.0387 38.5693 10.6532 38.1921 10.4646Z" fill="#FE3C09"/>
<path d="M10.1887 18.6151C10.1887 19.3162 10.7592 19.8867 11.4603 19.8867C13.1449 19.8227 13.1446 17.4071 11.4603 17.3435C10.7592 17.3435 10.1887 17.9139 10.1887 18.6151Z" fill="#FE3C09"/>
<path d="M31.8112 18.6151C31.8112 17.9139 31.2407 17.3435 30.5396 17.3435C28.8549 17.4074 28.8554 19.823 30.5396 19.8867C31.2407 19.8867 31.8112 19.3162 31.8112 18.6151Z" fill="#FE3C09"/>
</g>
<defs>
<clipPath id="clip0_1_43">
<rect width="38" height="38" fill="white" transform="translate(2 2)"/>
</clipPath>
</defs>
</svg>
