<svg width="101" height="101" viewBox="0 0 101 101" fill="#1d44ff"
    xmlns="http://www.w3.org/2000/svg">
    <path
        d="M50.6639 88.6721C29.7982 88.7201 12.677 71.3351 12.7403 50.5108C12.8032 29.7826 29.8556 12.4837 50.9928 12.5548C71.9782 12.6254 89.0221 29.9859 88.9099 50.8384C88.7983 71.568 71.6003 88.9257 50.6639 88.6721ZM47.8312 19.2516C47.3416 19.5352 46.9883 19.6527 46.7556 19.8891C45.5079 21.1563 44.082 22.3119 43.0977 23.7637C38.4204 30.6626 36.9137 38.5296 36.3965 46.6694C36.346 47.4646 36.7314 47.6683 37.4522 47.6632C40.4749 47.6418 43.4978 47.6566 46.5207 47.6542C47.8696 47.6531 47.8745 47.6489 47.8753 46.2953C47.8805 37.6819 47.8838 29.0685 47.8851 20.455C47.8851 20.1362 47.8574 19.8174 47.8312 19.2516ZM53.8493 19.2949C53.8099 19.7422 53.768 19.9959 53.768 20.2496C53.7685 29.0256 53.7826 37.8016 53.7616 46.5775C53.7595 47.467 54.1172 47.6763 54.9261 47.6676C57.9486 47.6353 60.9717 47.6579 63.9945 47.6534C65.2167 47.6516 65.2973 47.6034 65.241 46.3877C65.0568 42.4154 64.4533 38.5024 63.4006 34.6679C62.2229 30.3781 60.6203 26.2687 57.8337 22.7346C56.7768 21.3942 55.6026 20.1372 53.8493 19.2949ZM47.7833 81.8739C47.8185 81.4648 47.863 81.1881 47.8632 80.9114C47.869 72.1768 47.8597 63.4421 47.8888 54.7075C47.8919 53.8012 47.5803 53.531 46.702 53.5428C43.6827 53.5831 40.6625 53.555 37.6427 53.5597C36.4359 53.5616 36.2802 53.6245 36.4276 54.8352C36.8308 58.1474 37.1577 61.4857 37.8517 64.7419C38.9287 69.795 40.7503 74.5851 44.0272 78.6893C45.0353 79.9518 46.1851 81.0754 47.7833 81.8739ZM53.8412 81.7601C54.0294 81.7411 54.1375 81.7595 54.2108 81.7174C54.4637 81.5724 54.7114 81.416 54.9486 81.2465C56.7509 79.9588 58.1291 78.2799 59.2553 76.4027C63.2509 69.7429 64.7195 62.3767 65.2573 54.7516C65.3256 53.7827 64.9267 53.53 64.0195 53.5426C61.0327 53.584 58.0445 53.5902 55.058 53.5394C54.1005 53.5231 53.7549 53.7848 53.7592 54.7946C53.7961 63.4642 53.7829 72.134 53.7879 80.8038C53.7881 81.1145 53.8217 81.4253 53.8412 81.7601ZM64.5299 21.3004L64.4932 21.5347C65.66 24.1703 66.9605 26.7562 67.9655 29.4522C70.0231 34.9713 70.8735 40.7534 71.2805 46.6032C71.3357 47.3972 71.5994 47.6747 72.391 47.6669C75.5087 47.6361 78.627 47.6399 81.7449 47.6641C82.5494 47.6703 82.8202 47.445 82.7017 46.5782C81.5141 37.8921 77.4735 30.8117 70.655 25.3581C68.7501 23.8345 66.5789 22.6438 64.5299 21.3004ZM37.2687 21.4229C36.504 21.835 35.9717 22.1062 35.4543 22.403C26.0201 27.8155 20.5 35.8891 18.9385 46.6658C18.8295 47.4181 19.0748 47.6644 19.8003 47.6606C22.9824 47.6441 26.1647 47.6424 29.3468 47.6623C30.0371 47.6667 30.3129 47.4289 30.3658 46.7126C30.4996 44.9027 30.6775 43.0937 30.9127 41.2941C31.787 34.6049 33.5197 28.1842 36.9594 22.3088C37.0634 22.1311 37.1003 21.914 37.2687 21.4229ZM64.3758 79.5022C64.6246 79.5022 64.6941 79.5213 64.7458 79.499C64.984 79.3961 65.2233 79.2931 65.4512 79.1698C75.1547 73.9204 80.9231 65.8768 82.625 54.9547C82.8414 53.5661 82.8165 53.5596 81.3906 53.5585C78.8577 53.5565 76.3245 53.5336 73.792 53.5643C70.8525 53.5999 71.4254 53.0707 71.1604 56.1236C70.7604 60.7324 70.0315 65.2681 68.6854 69.6957C67.6541 73.088 66.3389 76.3626 64.3758 79.5022ZM37.0023 79.5315C35.8651 76.8988 34.6411 74.3558 33.6559 71.7235C31.59 66.2034 30.7808 60.4185 30.366 54.5723C30.3136 53.8341 30.08 53.5413 29.3211 53.5478C26.1715 53.5749 23.0214 53.5701 19.8716 53.5509C19.1274 53.5464 18.828 53.7427 18.9423 54.5734C20.1205 63.1395 24.0602 70.1553 30.7381 75.6249C32.6672 77.2049 34.7423 78.5807 37.0023 79.5315Z"
        fill="#1d44ff"></path>
    <path
        d="M50.8339 100.653C44.2043 100.647 37.8529 99.3323 31.7394 96.8139C30.4298 96.2743 29.5791 95.1216 29.5954 93.9455C29.612 92.7444 30.3698 91.4738 31.5604 91.1989C32.3851 91.0086 33.3926 91.0664 34.1834 91.3677C37.5088 92.6346 40.8979 93.6119 44.4217 94.1208C52.3154 95.2606 59.9536 94.3322 67.3727 91.4017C68.1653 91.0886 69.166 90.9955 69.9981 91.1617C71.2225 91.4062 72.0887 92.7082 72.0424 93.9403C71.9913 95.2998 71.2908 96.3205 70.0041 96.7645C67.3964 97.6645 64.7846 98.5738 62.1241 99.2923C60.2508 99.7982 58.304 100.078 56.372 100.307C54.5381 100.525 52.6809 100.546 50.8339 100.653Z"
        fill="#1d44ff"></path>
    <path
        d="M0.745117 50.6655C0.841166 44.009 2.08245 37.6136 4.68059 31.4921C5.4375 29.7087 7.0604 29.0179 8.72416 29.7116C10.2054 30.3292 10.8277 32.0372 10.1354 33.748C7.91556 39.2336 6.74292 44.933 6.79074 50.8469C6.83661 56.5198 7.92244 62.0063 10.0997 67.2658C10.9889 69.4137 10.0681 71.3458 8.02587 71.7468C6.68224 72.0106 5.30863 71.286 4.71877 69.9124C2.97763 65.858 1.82776 61.6323 1.28879 57.2564C1.01953 55.0703 0.920918 52.8631 0.745117 50.6655Z"
        fill="#1d44ff"></path>
    <path
        d="M100.96 50.6995C100.818 57.266 99.5457 63.5567 97.0669 69.6117C96.5575 70.8561 95.6974 71.6737 94.3292 71.7924C93.1984 71.8904 92.3152 71.3717 91.6817 70.4485C90.985 69.4334 91.0852 68.3724 91.5328 67.2902C92.8415 64.1253 93.7692 60.8532 94.3033 57.4677C95.5684 49.4489 94.6249 41.6838 91.666 34.1431C91.4776 33.6629 91.2745 33.1654 91.2189 32.6604C91.0626 31.2421 92.0047 29.929 93.3587 29.5699C94.8381 29.1776 96.2451 29.8295 96.8825 31.2812C98.4841 34.9291 99.5949 38.7331 100.157 42.6715C100.536 45.3316 100.7 48.0224 100.96 50.6995Z"
        fill="#1d44ff"></path>
    <path
        d="M49.4406 0.653803C57.2209 0.668535 63.3989 1.86563 69.3569 4.21994C70.7702 4.7784 71.8995 5.5501 71.9011 7.28083C71.903 9.31285 70.1353 10.6749 68.1912 10.0631C66.4266 9.5078 64.7125 8.78538 62.9366 8.27403C57.9985 6.85218 52.9729 6.29536 47.8214 6.67265C43.1075 7.01789 38.5897 8.0638 34.2088 9.8029C33.5934 10.0472 32.8819 10.2085 32.2299 10.1677C30.975 10.0892 29.9626 9.05501 29.7793 7.87842C29.5516 6.41768 30.0343 5.18353 31.3974 4.67052C34.0669 3.66588 36.7675 2.69923 39.5243 1.98231C43.2087 1.02413 46.9941 0.632125 49.4406 0.653803Z"
        fill="#1d44ff"></path>
</svg>