<svg width="101" height="101" viewBox="0 0 101 101" fill="none" xmlns="http://www.w3.org/2000/svg">
    <g>
        <path
            d="M42.1002 19.9449C40.0316 17.3016 39.184 14.3754 39.8478 11.1102C40.3618 8.58168 41.6827 6.51344 43.7328 4.94349C47.8174 1.81553 53.4351 2.12318 57.215 5.67689C60.6595 8.91524 61.9739 14.819 58.0129 19.9426C58.2349 20.0908 58.4494 20.2394 58.6692 20.3799C63.9639 23.7641 66.7195 28.5789 66.8464 34.8697C66.8658 35.8323 66.8544 36.7957 66.848 37.7587C66.8365 39.4982 65.8075 40.6199 64.0815 40.7725C63.8035 40.7971 63.522 40.7857 63.2422 40.7857C54.4389 40.7863 45.6354 40.7522 36.8325 40.8101C34.6337 40.8245 33.1561 39.713 33.2016 37.184C33.2583 34.0316 33.3313 30.9264 34.6781 27.992C36.1453 24.7954 38.3537 22.2668 41.3592 20.433C41.5904 20.2919 41.812 20.1354 42.1002 19.9449ZM61.2596 35.1314C61.2152 31.0591 59.6744 27.7851 56.3035 25.5522C52.3729 22.9484 48.2385 22.8612 44.2029 25.2881C40.5648 27.4759 38.8993 30.8527 38.8198 35.1314H61.2596ZM50.0674 17.9827C52.7144 17.9662 54.8943 15.782 54.8716 13.1692C54.8488 10.5504 52.6474 8.38129 50.0216 8.3904C47.4043 8.39948 45.2033 10.6105 45.2179 13.2157C45.2327 15.8383 47.431 17.9992 50.0674 17.9827Z"
            fill="#1d44ff"></path>
        <path
            d="M27.2027 77.2786C28.796 78.7203 30.5124 80.0224 31.9188 81.6C34.5536 84.5556 35.7691 88.1316 35.8473 92.085C35.8694 93.2028 35.8658 94.3218 35.8475 95.4398C35.821 97.0651 34.6422 98.2663 33.0117 98.2684C23.7109 98.2803 14.4102 98.2786 5.10946 98.2696C3.62949 98.2682 2.33313 97.2388 2.27908 95.8353C2.15611 92.6423 2.11149 89.4487 3.32237 86.3831C4.75311 82.7609 7.10389 79.9372 10.4247 77.9095C10.5834 77.8126 10.7422 77.7155 10.8965 77.6119C10.9466 77.5783 10.9825 77.5237 11.0756 77.425C9.06281 74.8727 8.21001 71.9716 8.82787 68.738C9.2916 66.311 10.4999 64.266 12.4238 62.7028C16.3817 59.487 22.0072 59.5618 25.8039 62.7955C29.1951 65.6838 31.3728 71.7078 27.2027 77.2786ZM7.83605 92.6297H30.2667C30.1272 88.3782 28.5193 84.9616 24.8614 82.7733C20.9151 80.4124 16.8488 80.4748 12.9733 82.9373C9.48713 85.1524 7.93879 88.5041 7.83605 92.6297ZM19.0167 75.5215C21.6383 75.5371 23.8457 73.366 23.8751 70.7432C23.9042 68.143 21.7127 65.9343 19.0803 65.9107C16.4592 65.8872 14.2467 68.0595 14.2224 70.6804C14.1983 73.2845 16.3982 75.5059 19.0167 75.5215Z"
            fill="#1d44ff"></path>
        <path
            d="M73.0727 77.48C68.9705 72.1014 70.5501 66.0949 74.1867 62.8881C77.9614 59.5597 83.7906 59.4712 87.7105 62.7293C91.3075 65.719 93.3005 71.8077 89.066 77.4409C90.0111 78.1325 91.0076 78.7644 91.8929 79.5254C95.7844 82.8704 97.7453 87.1374 97.8436 92.2587C97.8633 93.2834 97.8555 94.309 97.8446 95.334C97.826 97.0741 96.6555 98.269 94.9224 98.2705C85.6528 98.2787 76.3831 98.2785 67.1135 98.27C65.6286 98.2686 64.3276 97.2439 64.2735 95.8474C64.1488 92.6228 64.0987 89.3952 65.3407 86.3066C66.7923 82.6969 69.1469 79.8725 72.4872 77.8687C72.6715 77.7582 72.8459 77.6312 73.0727 77.48ZM69.8823 92.6195H92.2058C92.3292 86.2499 87.3225 81.046 80.9002 81.1241C74.5636 81.201 69.7207 86.4289 69.8823 92.6195ZM81.0234 75.5215C83.6443 75.5295 85.8517 73.3446 85.8669 70.7275C85.882 68.1213 83.6892 65.9264 81.0548 65.9107C78.436 65.8952 76.2226 68.0833 76.2139 70.6963C76.2051 73.3061 78.4053 75.5135 81.0234 75.5215Z"
            fill="#1d44ff"></path>
        <path
            d="M42.7167 46.3844C45.36 46.3922 47.5727 47.1695 49.4881 48.7459C49.8961 49.0817 50.1609 49.0926 50.5998 48.7549C54.2214 45.9691 58.1845 45.5203 62.21 47.5998C66.2132 49.6677 68.1104 53.1735 67.9401 57.6767C67.8432 60.239 66.8574 62.523 65.0452 64.3569C60.763 68.6904 56.439 72.9829 52.1193 77.2793C50.8725 78.5194 49.2189 78.5194 47.9734 77.2805C43.6978 73.0278 39.3886 68.807 35.1869 64.4823C32.2426 61.452 31.3489 57.7842 32.6677 53.7495C33.9978 49.6804 36.9289 47.3232 41.1083 46.4846C41.2599 46.4542 41.4167 46.4445 41.5716 46.4364C42.0063 46.4136 42.4413 46.3966 42.7167 46.3844ZM49.9698 71.3182C53.7244 67.6254 57.5164 64.0371 61.1335 60.2808C63.0531 58.2873 62.7459 55.1867 60.7628 53.3265C58.8013 51.4864 55.7721 51.5149 53.762 53.4021C53.2409 53.8912 52.752 54.4143 52.2368 54.9099C50.7935 56.2986 49.2614 56.2845 47.8145 54.8726C47.3473 54.4167 46.8969 53.9436 46.4257 53.4919C44.3516 51.5038 41.291 51.4518 39.2882 53.3648C37.2432 55.318 37.1124 58.4479 39.1578 60.5427C42.7182 64.189 46.3729 67.7434 49.9698 71.3182Z"
            fill="#1d44ff"></path>
        <path
            d="M9.86969 50.9122C10.3907 39.8647 14.6666 30.5218 22.7109 22.908C23.0044 22.6302 23.2989 22.3516 23.6127 22.0977C24.907 21.05 26.6292 21.141 27.6322 22.3001C28.6564 23.4837 28.4828 25.1126 27.3194 26.3181C25.5968 28.1031 23.7797 29.829 22.2816 31.7922C18.577 36.6472 16.3564 42.1572 15.6794 48.2435C15.4842 49.9985 15.5053 51.7772 15.3228 53.5342C15.1814 54.8948 13.9549 55.8649 12.5985 55.859C11.2394 55.8531 10.0385 54.8703 9.88753 53.5156C9.79197 52.6577 9.86969 51.7807 9.86969 50.9122Z"
            fill="#1d44ff"></path>
        <path
            d="M90.2497 51.0556C90.2497 51.8006 90.3039 52.5503 90.2382 53.2895C90.1051 54.7877 88.9793 55.8234 87.5327 55.8567C86.076 55.8903 84.8544 54.8299 84.7196 53.3027C84.5751 51.6658 84.5971 50.0128 84.4201 48.3805C83.7204 41.9283 81.2924 36.1561 77.277 31.0803C75.9729 29.432 74.4468 27.9485 72.9387 26.4748C71.6166 25.1828 71.3739 23.5043 72.4895 22.2647C73.5543 21.0816 75.3044 21.0451 76.6537 22.2507C83.2751 28.1671 87.5743 35.4571 89.4188 44.1396C89.9003 46.4059 90.092 48.7336 90.4168 51.0331C90.3611 51.0406 90.3054 51.0481 90.2497 51.0556Z"
            fill="#1d44ff"></path>
        <path
            d="M50.0128 92.7345C47.6216 92.4688 45.245 92.2499 42.8829 91.9263C41.3309 91.7136 40.2992 90.2287 40.5456 88.7631C40.8015 87.2404 42.2782 86.1914 43.8293 86.4524C47.967 87.1485 52.103 87.1428 56.2409 86.4574C57.8095 86.1976 59.2667 87.2137 59.5395 88.7443C59.7995 90.2032 58.7671 91.714 57.2262 91.9237C54.8331 92.2495 52.4254 92.4688 50.0128 92.7345Z"
            fill="#1d44ff"></path>
    </g>
</svg>