<svg width="101" height="101" viewBox="0 0 101 101" fill="none" xmlns="http://www.w3.org/2000/svg">
    <g>
        <path
            d="M50.7596 97.9042C47.2474 97.9042 43.7351 97.9082 40.2229 97.9027C38.1406 97.8994 37.0616 96.8226 37.0579 94.746C37.0526 91.7831 36.976 88.8175 37.0746 85.8579C37.2955 79.2204 35.6908 73.0194 32.7087 67.1524C30.592 62.9881 28.3309 58.8975 26.1808 54.7498C23.8085 50.1738 21.8989 45.4209 21.0735 40.2991C19.3306 29.4833 22.0937 20.0471 29.9996 12.3565C34.9268 7.56349 40.9125 4.8077 47.7944 4.16679C57.5361 3.25955 65.8696 6.35712 72.6786 13.3247C77.4603 18.2178 80.211 24.1627 80.9433 30.9976C81.6936 37.9994 80.2587 44.6435 77.2988 50.9311C74.9729 55.8719 72.2981 60.6479 69.8014 65.509C67.6588 69.6806 65.8222 73.9733 65.1154 78.6515C64.8609 80.3363 64.697 82.0482 64.6662 83.7509C64.5999 87.4151 64.651 91.0814 64.6459 94.7468C64.643 96.8228 63.5622 97.8995 61.4797 97.9027C57.9063 97.9081 54.333 97.9042 50.7596 97.9042ZM50.7791 64.451C54.8707 64.451 58.9624 64.4327 63.0537 64.4675C63.808 64.4739 64.2039 64.2091 64.5294 63.5453C65.3086 61.9563 66.158 60.4013 66.9944 58.8408C69.3016 54.5365 71.7576 50.3033 73.4134 45.6836C75.5063 39.8441 76.3113 33.9019 74.6772 27.7991C71.596 16.2915 60.4672 8.49371 48.5957 9.66959C43.0456 10.2193 38.1779 12.2977 34.1435 16.1017C27.3841 22.4751 25.1172 30.3791 26.6092 39.4512C27.2899 43.5902 28.7777 47.465 30.6704 51.1772C32.8334 55.4195 35.1167 59.6002 37.3188 63.8228C37.6214 64.403 38.0503 64.4568 38.5961 64.4556C42.6571 64.4468 46.7181 64.4509 50.7791 64.451ZM50.8146 92.3031C53.258 92.3031 55.7016 92.2865 58.1446 92.3141C58.8059 92.3215 59.0802 92.123 59.0595 91.4282C59.0195 90.0853 59.0275 88.74 59.0578 87.3966C59.0717 86.7763 58.8691 86.5269 58.2194 86.5293C53.3022 86.5477 48.3848 86.5483 43.4675 86.5292C42.7998 86.5266 42.6339 86.8115 42.6469 87.4136C42.6746 88.6959 42.6952 89.9809 42.6409 91.2616C42.6074 92.0496 42.8425 92.3377 43.6681 92.3208C46.0494 92.2719 48.4323 92.3035 50.8146 92.3031ZM40.216 70.0443C40.2471 70.3216 40.2389 70.4467 40.2766 70.5559C41.3749 73.7387 42.1762 76.986 42.4991 80.3476C42.5201 80.5656 42.9521 80.903 43.2039 80.9133C44.5747 80.9692 45.949 80.9313 47.3219 80.9445C47.8064 80.9492 48.0581 80.7881 48.0566 80.2624C48.0481 77.0887 48.0668 73.9149 48.028 70.7417C48.0251 70.5069 47.6469 70.0788 47.4364 70.0746C45.0631 70.0267 42.6884 70.0443 40.216 70.0443ZM61.5374 70.0453C58.997 70.0453 56.6214 70.0302 54.2469 70.0724C54.045 70.076 53.6798 70.4602 53.6774 70.6708C53.6409 73.8746 53.6393 77.079 53.6809 80.2826C53.6838 80.504 54.084 80.8997 54.3122 80.9093C55.7133 80.9682 57.1182 80.93 58.5216 80.9445C59.0246 80.9497 59.2086 80.7339 59.2497 80.2392C59.5136 77.0595 60.266 73.9846 61.288 70.9699C61.3734 70.7182 61.4277 70.456 61.5374 70.0453Z"
            fill="#1d44ff"></path>
        <path
            d="M83.9825 92.0373C82.1817 92.0373 80.3808 92.0453 78.58 92.0357C74.5552 92.0142 71.2666 89.3684 70.4068 85.4707C69.5707 81.6805 71.4837 77.8609 75.1086 76.1891C75.7614 75.8881 76.1537 75.4854 76.4703 74.8394C78.0001 71.7171 80.4989 69.9653 84.0172 69.9687C87.5294 69.9721 90.0391 71.7075 91.5717 74.8314C91.8875 75.4752 92.2728 75.8855 92.9288 76.1856C96.5475 77.8412 98.4732 81.6771 97.6397 85.4628C96.7803 89.3658 93.4979 92.0132 89.4766 92.0355C87.6453 92.0457 85.8139 92.0373 83.9825 92.0373ZM84.0171 86.4333V86.4386C85.7248 86.4386 87.4326 86.4509 89.1401 86.4351C90.9025 86.4188 92.1366 85.3519 92.2027 83.821C92.2658 82.3575 91.1205 81.2217 89.3971 81.0387C87.8101 80.8702 86.9248 79.9331 86.7042 78.3144C86.6284 77.7583 86.4572 77.166 86.1587 76.6997C85.5425 75.7373 84.4178 75.3813 83.3549 75.6744C82.1808 75.9981 81.4851 76.8695 81.3302 78.2104C81.1193 80.0364 80.3185 80.8026 78.4781 81.0659C77.9532 81.141 77.3967 81.3274 76.9604 81.6202C75.9833 82.2757 75.649 83.4208 75.9921 84.5249C76.3444 85.6586 77.3036 86.3954 78.62 86.4237C80.4183 86.4622 82.218 86.4333 84.0171 86.4333Z"
            fill="#1d44ff"></path>
        <path
            d="M17.7088 86.5374C15.8774 86.5374 14.046 86.5463 12.2147 86.5356C8.19918 86.5121 4.91703 83.8552 4.06152 79.9478C3.24094 76.1999 5.14012 72.3715 8.70988 70.7218C9.43057 70.3888 9.82815 69.9237 10.1789 69.2347C11.7922 66.0659 14.3846 64.3496 17.9777 64.4762C21.4443 64.5985 23.844 66.413 25.3514 69.5097C25.5649 69.9484 26.0055 70.3863 26.4485 70.586C30.0422 72.2057 32.1058 76.0541 31.3281 79.803C30.5032 83.7794 27.2189 86.5064 23.2028 86.5349C21.3715 86.5479 19.5401 86.5371 17.7088 86.5374ZM17.6445 80.9348C17.6445 80.9368 17.6445 80.9387 17.6445 80.9407C19.3833 80.9407 21.1223 80.9567 22.8608 80.9361C24.5666 80.916 25.7712 79.8596 25.8595 78.3518C25.9452 76.8904 24.793 75.723 23.0849 75.5406C21.474 75.3686 20.5543 74.4494 20.382 72.8393C20.2032 71.1689 19.1081 70.0412 17.6713 70.0479C16.2329 70.0547 15.1586 71.176 14.9786 72.8583C14.8078 74.4556 13.8797 75.3368 12.26 75.5583C11.7036 75.6344 11.1101 75.8034 10.6444 76.1026C9.65587 76.7377 9.30907 77.8918 9.64082 78.995C9.98445 80.1376 10.9384 80.893 12.2454 80.9241C14.0442 80.9668 15.8447 80.9348 17.6445 80.9348Z"
            fill="#1d44ff"></path>
    </g>
</svg>