<svg width="101" height="101" viewBox="0 0 101 101" fill="none" xmlns="http://www.w3.org/2000/svg">
    <g>
        <path
            d="M51.0089 11.0778C60.1263 11.0778 69.2437 11.0715 78.361 11.0812C81.6482 11.0847 84.3144 13.0621 85.1498 16.1285C85.3353 16.8092 85.4238 17.5373 85.4253 18.2439C85.4482 28.7905 85.4547 39.3371 85.4521 49.8837C85.451 54.0424 82.457 57.0196 78.2917 57.0335C76.1209 57.0407 73.9496 57.0612 71.7796 57.0199C71.0762 57.0066 70.6842 57.2089 70.3772 57.8746C69.2763 60.2623 68.1102 62.6201 66.9603 64.9851C66.2736 66.3976 64.8844 66.9693 63.6975 66.2299C63.2122 65.9275 62.7972 65.3947 62.5338 64.8739C61.3589 62.5503 60.2313 60.2019 59.131 57.8418C58.8569 57.2539 58.5342 57.0154 57.865 57.0196C53.2682 57.049 48.6711 57.0454 44.0742 57.0228C43.4593 57.0197 43.11 57.1937 42.84 57.7727C41.7397 60.1328 40.5726 62.4617 39.4624 64.8173C38.9893 65.8208 38.327 66.5344 37.1549 66.5262C36.0202 66.5183 35.3647 65.8284 34.903 64.851C33.8016 62.5194 32.6398 60.216 31.5618 57.8739C31.2553 57.2081 30.8627 57.0066 30.1596 57.0199C27.9896 57.0612 25.8183 57.0407 23.6475 57.0335C19.4824 57.0197 16.4872 54.0392 16.4865 49.8823C16.4847 39.3357 16.4906 28.7891 16.5045 18.2425C16.51 14.071 19.4933 11.0841 23.6568 11.0802C32.7741 11.0718 41.8915 11.0776 51.0089 11.0778ZM64.7704 58.9163C65.6292 57.1618 66.4187 55.617 67.1447 54.043C67.6703 52.9033 68.5167 52.4156 69.7522 52.4265C72.5365 52.4511 75.3212 52.4358 78.1057 52.4334C79.9862 52.4318 80.8577 51.5564 80.859 49.6644C80.8662 39.2427 80.8722 28.8209 80.8767 18.3991C80.8776 16.4764 80.0406 15.6316 78.1316 15.6315C60.0196 15.6302 41.9076 15.6302 23.7956 15.6315C21.9215 15.6317 21.0618 16.4809 21.0625 18.3339C21.0663 28.8067 21.0724 39.2794 21.0803 49.7522C21.0817 51.5331 21.9844 52.4308 23.7701 52.4331C26.6057 52.4367 29.4413 52.4437 32.2769 52.4299C33.4501 52.4243 34.2634 52.9112 34.7643 53.9877C35.4214 55.3999 36.1248 56.7907 36.8129 58.1884C36.9079 58.3813 37.0296 58.5609 37.1905 58.8345C37.3625 58.5131 37.4866 58.2971 37.596 58.0739C38.293 56.6521 38.9881 55.2293 39.6812 53.8056C40.1156 52.9134 40.8416 52.4447 41.8179 52.4428C47.9234 52.4311 54.0288 52.4307 60.1343 52.4436C61.1116 52.4456 61.8318 52.9274 62.2646 53.8177C62.8565 55.035 63.4509 56.2512 64.0464 57.4668C64.256 57.8946 64.472 58.3194 64.7704 58.9163Z"
            fill="#1d44ff"></path>
        <path
            d="M24.6363 75.846C26.1134 75.846 27.6163 75.6699 29.0624 75.8818C32.3194 76.359 34.6895 79.2432 34.728 82.537C34.7456 84.0438 34.7416 85.5512 34.7294 87.0581C34.717 88.587 33.7676 89.5301 32.2233 89.5318C26.22 89.5386 20.2168 89.539 14.2136 89.5314C12.6737 89.5295 11.7165 88.5814 11.7273 87.0427C11.7406 85.1555 11.6221 83.2431 11.8847 81.3874C12.347 78.1203 15.2434 75.7703 18.542 75.7253C19.6385 75.7103 20.7355 75.7229 21.8552 75.6711C19.9613 75.1475 18.4097 74.1589 17.3746 72.4715C16.3497 70.8005 16.0651 69.0065 16.5575 67.0994C17.378 63.9211 20.3866 61.7364 23.6545 61.9464C27.0218 62.1628 29.6896 64.737 30.0981 68.1638C30.499 71.5273 28.3752 74.4283 24.6305 75.632C24.6324 75.7033 24.6344 75.7747 24.6363 75.846ZM23.1642 84.9155C25.2293 84.9155 27.2946 84.9295 29.3591 84.8972C29.6092 84.8933 30.0563 84.6564 30.0693 84.4991C30.132 83.7418 30.1567 82.9629 30.045 82.214C29.8816 81.1185 28.9717 80.3603 27.839 80.3508C24.7544 80.3249 21.6691 80.3191 18.5847 80.3544C17.3153 80.369 16.4062 81.3416 16.3464 82.619C16.3225 83.1278 16.3741 83.6413 16.3311 84.1476C16.279 84.7622 16.5334 84.9344 17.1221 84.9263C19.1358 84.8984 21.1501 84.9156 23.1642 84.9155ZM23.2317 71.1202C24.4687 71.1163 25.5274 70.0437 25.5135 68.8083C25.4996 67.5713 24.4193 66.5224 23.1834 66.546C21.9761 66.569 20.9481 67.6093 20.9391 68.8172C20.9298 70.0509 21.9981 71.124 23.2317 71.1202Z"
            fill="#1d44ff"></path>
        <path
            d="M52.3961 75.849C53.8735 75.849 55.3767 75.6729 56.8231 75.8848C60.0423 76.3565 62.4207 79.232 62.4694 82.4784C62.4924 84.0107 62.4852 85.5437 62.4719 87.0762C62.4589 88.568 61.5125 89.5282 60.0248 89.5305C53.996 89.5398 47.9672 89.5391 41.9384 89.5311C40.4394 89.5292 39.4634 88.5809 39.4715 87.1013C39.482 85.1887 39.3655 83.2505 39.6313 81.3697C40.0919 78.1092 42.9975 75.7668 46.3029 75.7249C47.3952 75.7111 48.4878 75.7227 49.6966 75.7227C45.1725 73.7674 43.4262 71.0277 44.2459 67.3041C44.951 64.1004 47.9516 61.8067 51.2623 61.9406C54.6218 62.0765 57.3097 64.5719 57.8216 68.03C58.3197 71.395 56.2474 74.2899 52.3676 75.6491C52.3771 75.7157 52.3866 75.7823 52.3961 75.849ZM50.93 84.9154C52.995 84.9154 55.0603 84.9298 57.1249 84.8962C57.3683 84.8922 57.8002 84.6422 57.8153 84.4762C57.8819 83.7447 57.8986 82.9927 57.8008 82.266C57.6531 81.1691 56.755 80.3671 55.6354 80.3554C52.5255 80.3229 49.4146 80.3193 46.3048 80.3563C45.0701 80.371 44.1655 81.3303 44.0925 82.5655C44.0625 83.0737 44.1168 83.5877 44.0741 84.094C44.0213 84.7197 44.2436 84.9398 44.888 84.9286C46.9014 84.8934 48.9159 84.9157 50.93 84.9154ZM50.9891 71.1202C52.2247 71.1085 53.2786 70.0271 53.2564 68.7938C53.2342 67.5552 52.1485 66.5143 50.9118 66.5459C49.7038 66.5769 48.6831 67.6232 48.682 68.8317C48.6808 70.0659 49.7556 71.132 50.9891 71.1202Z"
            fill="#1d44ff"></path>
        <path
            d="M79.9407 75.7219C81.1418 75.7219 82.1778 75.7166 83.2137 75.7229C87.1779 75.7468 90.1965 78.7623 90.2166 82.7203C90.2239 84.1507 90.2255 85.5812 90.2162 87.0116C90.2059 88.595 89.2706 89.5308 87.6791 89.5323C81.7014 89.5381 75.7237 89.5381 69.746 89.5323C68.1531 89.5308 67.1999 88.5959 67.2129 87.0126C67.2285 85.1255 67.1119 83.2132 67.3758 81.3577C67.8346 78.1314 70.7259 75.7801 73.9814 75.7264C75.0941 75.708 76.2074 75.7235 77.4737 75.7235C72.9859 73.8891 71.1966 71.1118 71.9767 67.3674C72.6388 64.1893 75.5789 61.871 78.8642 61.9365C82.2323 62.0036 84.9594 64.4369 85.538 67.8913C86.1108 71.3108 84.1051 74.1798 79.9407 75.7219ZM78.6301 84.9151C80.7206 84.9151 82.8113 84.9022 84.9017 84.9241C85.4337 84.9296 85.6383 84.7468 85.6057 84.2159C85.5728 83.6825 85.6177 83.1446 85.5913 82.6105C85.5282 81.3331 84.6165 80.3677 83.3449 80.3537C80.2605 80.3196 77.1752 80.3205 74.0907 80.3527C72.8168 80.3659 71.8995 81.3267 71.8333 82.5989C71.8081 83.0821 71.8617 83.5707 71.8167 84.051C71.7553 84.7066 71.9722 84.9461 72.6646 84.9311C74.6523 84.8878 76.6415 84.9158 78.6301 84.9151ZM80.9995 68.847C81.0075 67.6096 79.9465 66.5441 78.708 66.5459C77.4701 66.5478 76.413 67.6169 76.425 68.8551C76.4366 70.0584 77.4752 71.1022 78.679 71.1203C79.9135 71.1388 80.9914 70.0827 80.9995 68.847Z"
            fill="#1d44ff"></path>
        <path
            d="M39.6304 24.9568C39.2318 25.5818 38.9237 26.2944 38.4189 26.8167C36.2734 29.0365 34.0851 31.2158 31.8759 33.3725C31.3488 33.887 31.3401 34.1913 31.8724 34.7103C34.1196 36.9011 36.3219 39.1379 38.5458 41.3527C39.1539 41.9583 39.5577 42.6507 39.4288 43.534C39.1871 45.1904 37.452 46.0202 36.0011 45.1777C35.7192 45.014 35.4689 44.7823 35.236 44.55C32.3816 41.7028 29.5311 38.8515 26.6839 35.997C25.3803 34.6899 25.3562 33.4319 26.6452 32.1352C29.5235 29.2397 32.4158 26.358 35.3093 23.4776C35.9945 22.7954 36.7815 22.377 37.7925 22.6846C38.6513 22.9459 39.1673 23.5272 39.3826 24.3869C39.4195 24.5343 39.4332 24.6876 39.4576 24.8383C39.5152 24.8778 39.5728 24.9173 39.6304 24.9568Z"
            fill="#1d44ff"></path>
        <path
            d="M76.4331 34.0066C76.0964 34.6366 75.9108 35.289 75.4938 35.7152C72.4962 38.7795 69.4654 41.8117 66.4142 44.8227C65.4327 45.7912 63.983 45.7441 63.1107 44.8216C62.2276 43.8877 62.2573 42.5183 63.2479 41.5143C65.4881 39.2438 67.7549 36.9996 70.0101 34.7439C70.4766 34.2772 70.4699 33.803 69.99 33.3212C67.8081 31.1365 65.624 28.9541 63.4442 26.7674C62.7433 26.0642 62.2807 25.2741 62.5997 24.2291C63.0521 22.7469 64.6693 22.1357 65.9837 22.9569C66.1984 23.0911 66.4019 23.2533 66.5812 23.432C69.5273 26.3681 72.4834 29.2944 75.3953 32.2641C75.8337 32.7112 76.0606 33.3657 76.4331 34.0066Z"
            fill="#1d44ff"></path>
        <path
            d="M46.4291 45.5232C44.8247 45.4935 43.755 44.0215 44.2084 42.5805C44.2996 42.2905 44.4361 42.0124 44.5727 41.7393C47.4848 35.9187 50.397 30.0983 53.3208 24.2836C53.5128 23.9018 53.7503 23.5202 54.0479 23.2189C54.7784 22.4793 55.8608 22.3806 56.7234 22.9127C57.6151 23.4628 58.026 24.5148 57.7212 25.4949C57.6534 25.713 57.5617 25.9261 57.4596 26.1308C54.4749 32.1147 51.4826 38.0949 48.5056 44.0827C48.0495 45.0002 47.3353 45.4608 46.4291 45.5232Z"
            fill="#1d44ff"></path>
    </g>
</svg>